<svg width="405" height="54" viewBox="0 0 405 54" fill="none" xmlns="http://www.w3.org/2000/svg">
<path fill-rule="evenodd" clip-rule="evenodd" d="M330 27H0V26H330V27Z" fill="#7392FF" fill-opacity="0.5"/>
<path fill-rule="evenodd" clip-rule="evenodd" d="M378 52.5C392.083 52.5 403.5 41.0833 403.5 27C403.5 12.9167 392.083 1.5 378 1.5C363.917 1.5 352.5 12.9167 352.5 27C352.5 41.0833 363.917 52.5 378 52.5ZM378 54C392.912 54 405 41.9117 405 27C405 12.0883 392.912 0 378 0C363.088 0 351 12.0883 351 27C351 41.9117 363.088 54 378 54Z" fill="#7392FF" fill-opacity="0.5"/>
<path d="M383.802 31.7279V34.4999H372.693V32.2949L378.363 26.9399C378.965 26.3659 379.371 25.8759 379.581 25.4699C379.791 25.0499 379.896 24.6369 379.896 24.2309C379.896 23.6429 379.693 23.1949 379.287 22.8869C378.895 22.5649 378.314 22.4039 377.544 22.4039C376.9 22.4039 376.319 22.5299 375.801 22.7819C375.283 23.0199 374.849 23.3839 374.499 23.8739L372.021 22.2779C372.595 21.4239 373.386 20.7589 374.394 20.2829C375.402 19.7929 376.557 19.5479 377.859 19.5479C378.951 19.5479 379.903 19.7299 380.715 20.0939C381.541 20.4439 382.178 20.9479 382.626 21.6059C383.088 22.2499 383.319 23.0129 383.319 23.8949C383.319 24.6929 383.151 25.4419 382.815 26.1419C382.479 26.8419 381.828 27.6399 380.862 28.5359L377.481 31.7279H383.802Z" fill="#7392FF" fill-opacity="0.5"/>
</svg>
