<svg width="370" height="45" viewBox="0 0 370 45" fill="none" xmlns="http://www.w3.org/2000/svg">
<circle cx="185.5" cy="22.5" r="21.5" stroke="#7392FF" stroke-width="2"/>
<path d="M187.052 20.87C188.401 21.09 189.435 21.596 190.154 22.388C190.873 23.1653 191.232 24.1333 191.232 25.292C191.232 26.1867 190.997 27.0153 190.528 27.778C190.059 28.526 189.34 29.1273 188.372 29.582C187.419 30.0367 186.245 30.264 184.852 30.264C183.767 30.264 182.696 30.1247 181.64 29.846C180.599 29.5527 179.711 29.142 178.978 28.614L180.364 25.886C180.951 26.326 181.625 26.6707 182.388 26.92C183.165 27.1547 183.957 27.272 184.764 27.272C185.659 27.272 186.363 27.1033 186.876 26.766C187.389 26.414 187.646 25.9227 187.646 25.292C187.646 24.0307 186.685 23.4 184.764 23.4H183.136V21.046L186.304 17.46H179.748V14.6H190.528V16.91L187.052 20.87Z" fill="#7392FF"/>
</svg>
