<svg width="370" height="45" viewBox="0 0 370 45" fill="none" xmlns="http://www.w3.org/2000/svg">
<circle cx="185.5" cy="22.5" r="21.5" stroke="#7392FF" stroke-width="2"/>
<path d="M191.364 27.096V30H179.726V27.69L185.666 22.08C186.297 21.4787 186.722 20.9653 186.942 20.54C187.162 20.1 187.272 19.6673 187.272 19.242C187.272 18.626 187.059 18.1567 186.634 17.834C186.223 17.4967 185.615 17.328 184.808 17.328C184.133 17.328 183.525 17.46 182.982 17.724C182.439 17.9733 181.985 18.3547 181.618 18.868L179.022 17.196C179.623 16.3013 180.452 15.6047 181.508 15.106C182.564 14.5927 183.774 14.336 185.138 14.336C186.282 14.336 187.279 14.5267 188.13 14.908C188.995 15.2747 189.663 15.8027 190.132 16.492C190.616 17.1667 190.858 17.966 190.858 18.89C190.858 19.726 190.682 20.5107 190.33 21.244C189.978 21.9773 189.296 22.8133 188.284 23.752L184.742 27.096H191.364Z" fill="#7392FF"/>
</svg>
