<svg width="405" height="54" viewBox="0 0 405 54" fill="none" xmlns="http://www.w3.org/2000/svg">
<path fill-rule="evenodd" clip-rule="evenodd" d="M330 27H0V25.5H330V27Z" fill="#7392FF" fill-opacity="0.5"/>
<path fill-rule="evenodd" clip-rule="evenodd" d="M378 52.5C392.083 52.5 403.5 41.0833 403.5 27C403.5 12.9167 392.083 1.5 378 1.5C363.917 1.5 352.5 12.9167 352.5 27C352.5 41.0833 363.917 52.5 378 52.5ZM378 54C392.912 54 405 41.9117 405 27C405 12.0883 392.912 0 378 0C363.088 0 351 12.0883 351 27C351 41.9117 363.088 54 378 54Z" fill="#7392FF" fill-opacity="0.5"/>
<path d="M379.988 21.2998V35.9998H376.586V24.0298H373.646V21.2998H379.988Z" fill="#7392FF" fill-opacity="0.5"/>
</svg>
